<svg xmlns="http://www.w3.org/2000/svg" width="24" height="24" viewBox="0 0 24 24"><defs><style>.cls-1{fill-opacity:0}.cls-2{fill:#ccc;fill-rule:evenodd}</style></defs><path id="Base" class="cls-1" d="M0 0h24v24H0z"/><path id="Shape" class="cls-2" d="M12 7.555V4H3v16h18V7.555h-9zM6.6 18.222H4.8v-1.778h1.8v1.778zm0-3.556H4.8v-1.777h1.8v1.778zm0-3.556H4.8V9.333h1.8v1.778zm0-3.556H4.8V5.778h1.8v1.777zm3.6 10.667H8.4v-1.777h1.8v1.778zm0-3.556H8.4v-1.776h1.8v1.778zm0-3.556H8.4V9.333h1.8v1.778zm0-3.556H8.4V5.778h1.8v1.777zm9 10.667H12v-1.776h1.8v-1.777H12v-1.778h1.8v-1.778H12V9.333h7.2v8.889zm-1.8-7.111h-1.8v1.778h1.8v-1.776zm0 3.556h-1.8v1.778h1.8v-1.776z"/></svg>