<svg xmlns="http://www.w3.org/2000/svg" width="40" height="40" viewBox="0 0 40 40"><defs><style>.cls-1{fill-opacity:0}.cls-2{fill:#767676;fill-rule:evenodd}</style></defs><path id="Base" class="cls-1" d="M0 0h40v40H0z"/><path id="Combined_Shape" data-name="Combined Shape" class="cls-2" d="M31.8 18.044L19.973 9.658 8.056 18.044v14.683H31.8V18.044zm-9.567 11.981c-1.266-1.658-3.414-4.759-3.626-6.974a21.277 21.277 0 0 0 1.593 7.607 1.408 1.408 0 0 1-.149.011c-.545 0-5.195-.108-5.239-6.187s6.217-9.529 6.217-9.529c-1.276 6.135 4.064 6.434 4.094 10.653a4.694 4.694 0 0 1-2.89 4.419zM5.036 18.656a1.431 1.431 0 0 0 .835-.267l14.1-9.9 14.148 9.966a1.432 1.432 0 0 0 1.958-.26 1.315 1.315 0 0 0-.27-1.887L20.824 5.728a1.442 1.442 0 0 0-1.681-.006L4.2 16.229a1.316 1.316 0 0 0-.283 1.886 1.416 1.416 0 0 0 1.119.541z"/></svg>