<svg xmlns="http://www.w3.org/2000/svg" width="18" height="18" viewBox="0 0 18 18"><defs><style>.cls-1{fill:#fff;fill-rule:evenodd}.cls-2{fill-opacity:0}</style></defs><path id="Shape" class="cls-1" d="M15.375 2.25l-.12.022-4 1.552L6.75 2.25 2.52 3.675a.378.378 0 0 0-.27.36v11.34a.371.371 0 0 0 .375.375l.12-.023 4-1.553 4.5 1.575 4.23-1.425a.378.378 0 0 0 .27-.36V2.625a.371.371 0 0 0-.375-.375zm-4.125 12l-4.5-1.582V3.75l4.5 1.582v8.918z"/><path id="Shape-2" data-name="Shape" class="cls-2" d="M0 0h18v18H0z"/></svg>