<svg xmlns="http://www.w3.org/2000/svg" width="24" height="24" viewBox="0 0 24 24"><defs><style>.cls-1{fill-opacity:0}.cls-2{fill:#ccc;fill-rule:evenodd}</style></defs><path id="Base" class="cls-1" d="M0 0h24v24H0z"/><path id="Shape" class="cls-2" d="M10.4 15.111v-.778H4.808L4.8 17.444A1.573 1.573 0 0 0 6.4 19h11.2a1.573 1.573 0 0 0 1.6-1.556v-3.111h-5.6v.778h-3.2zm8-7h-3.208V6.555L13.592 5h-3.2l-1.6 1.556v1.555H5.6A1.583 1.583 0 0 0 4 9.667V12a1.573 1.573 0 0 0 1.6 1.556h4.8V12h3.2v1.556h4.8A1.583 1.583 0 0 0 20 12V9.667a1.583 1.583 0 0 0-1.6-1.556zm-4.8 0h-3.2V6.555h3.2v1.556z"/></svg>