<svg xmlns="http://www.w3.org/2000/svg" width="18" height="18" viewBox="0 0 18 18"><defs><style>.cls-1{fill:#fff;fill-rule:evenodd}.cls-2{fill-opacity:0}</style></defs><path id="Shape" class="cls-1" d="M9.5 3A6.5 6.5 0 1 0 16 9.5 6.519 6.519 0 0 0 9.5 3zm0 1.95a1.915 1.915 0 0 1 1.95 1.95 1.95 1.95 0 1 1-3.9 0A1.915 1.915 0 0 1 9.5 4.95zm0 9.23a4.742 4.742 0 0 1-3.9-2.08c0-1.3 2.6-2.015 3.9-2.015s3.9.715 3.9 2.015a4.742 4.742 0 0 1-3.9 2.08z"/><path id="Shape-2" data-name="Shape" class="cls-2" d="M0 0h18v18H0z"/></svg>