<svg xmlns="http://www.w3.org/2000/svg" width="18" height="18" viewBox="0 0 18 18">
  <defs>
    <style>
      .cls-1 {
        fill: #fff;
        fill-rule: evenodd;
      }

      .cls-2 {
        fill-opacity: 0;
      }
    </style>
  </defs>
  <path id="Shape" class="cls-1" d="M15.375,2.25l-0.12.022-4,1.552L6.75,2.25,2.52,3.675a0.378,0.378,0,0,0-.27.36v11.34a0.371,0.371,0,0,0,.375.375l0.12-.023,4-1.553,4.5,1.575,4.23-1.425a0.378,0.378,0,0,0,.27-0.36V2.625a0.371,0.371,0,0,0-.375-0.375h0Zm-4.125,12-4.5-1.582V3.75l4.5,1.582V14.25h0Z"/>
  <rect id="Shape-2" data-name="Shape" class="cls-2" width="18" height="18"/>
</svg>
