<svg xmlns="http://www.w3.org/2000/svg" width="24" height="24" viewBox="0 0 24 24">
  <defs>
    <style>
      .cls-1 {
        fill-opacity: 0;
      }

      .cls-2 {
        fill: #ccc;
        fill-rule: evenodd;
      }
    </style>
  </defs>
  <rect id="Base" class="cls-1" width="24" height="24"/>
  <path id="Shape" class="cls-2" d="M15.636,11.571a2.786,2.786,0,1,0-2.727-2.786,2.746,2.746,0,0,0,2.727,2.786h0Zm-7.273,0A2.786,2.786,0,1,0,5.636,8.786a2.746,2.746,0,0,0,2.727,2.786h0Zm0,1.857C6.245,13.429,2,14.515,2,16.679V19H14.727V16.679c0-2.163-4.245-3.25-6.364-3.25h0Zm7.273,0c-0.264,0-.564.019-0.882,0.046a3.936,3.936,0,0,1,1.791,3.2V19H22V16.679c0-2.163-4.245-3.25-6.364-3.25h0Z"/>
</svg>
