<svg xmlns="http://www.w3.org/2000/svg" width="18" height="18" viewBox="0 0 18 18">
  <defs>
    <style>
      .cls-1 {
        fill: #fff;
        fill-rule: evenodd;
      }

      .cls-2 {
        fill-opacity: 0;
      }
    </style>
  </defs>
  <path id="Shape" class="cls-1" d="M9.5,3A6.5,6.5,0,1,0,16,9.5,6.519,6.519,0,0,0,9.5,3h0Zm0,1.95A1.915,1.915,0,0,1,11.45,6.9a1.95,1.95,0,1,1-3.9,0A1.915,1.915,0,0,1,9.5,4.95h0Zm0,9.23A4.742,4.742,0,0,1,5.6,12.1c0-1.3,2.6-2.015,3.9-2.015S13.4,10.8,13.4,12.1a4.742,4.742,0,0,1-3.9,2.08h0Z"/>
  <rect id="Shape-2" data-name="Shape" class="cls-2" width="18" height="18"/>
</svg>
